<svg xmlns="http://www.w3.org/2000/svg" viewBox="0 0 900 1200" width="900" height="1200" preserveAspectRatio="xMidYMid slice"><defs><linearGradient id="bg" x1="0" y1="0" x2="0" y2="1"><stop offset="0" stop-color="#1d2225"/><stop offset="0.78" stop-color="#131618"/><stop offset="1" stop-color="#0d0f10"/></linearGradient><radialGradient id="spot" cx="0.5" cy="0.35" r="0.65"><stop offset="0" stop-color="#fff" stop-opacity="0.07"/><stop offset="1" stop-color="#fff" stop-opacity="0"/></radialGradient><linearGradient id="body" x1="0" y1="0" x2="0" y2="1"><stop offset="0" stop-color="#1d5560"/><stop offset="1" stop-color="#1a4b54"/></linearGradient><pattern id="motif" width="64" height="64" patternUnits="userSpaceOnUse"><g fill="#d8b56c" stroke="#d8b56c" opacity="0.7"><g stroke="none"><g transform="translate(16 16)"><circle cx="0" cy="0" r="1.76"/><ellipse rx="1.34" ry="3.57" transform="rotate(0) translate(0 -4.2)"/><ellipse rx="1.34" ry="3.57" transform="rotate(90) translate(0 -4.2)"/><ellipse rx="1.34" ry="3.57" transform="rotate(180) translate(0 -4.2)"/><ellipse rx="1.34" ry="3.57" transform="rotate(270) translate(0 -4.2)"/></g><g transform="translate(48 48)"><circle cx="0" cy="0" r="1.76"/><ellipse rx="1.34" ry="3.57" transform="rotate(0) translate(0 -4.2)"/><ellipse rx="1.34" ry="3.57" transform="rotate(90) translate(0 -4.2)"/><ellipse rx="1.34" ry="3.57" transform="rotate(180) translate(0 -4.2)"/><ellipse rx="1.34" ry="3.57" transform="rotate(270) translate(0 -4.2)"/></g></g></g></pattern><pattern id="pallu" width="48" height="48" patternUnits="userSpaceOnUse"><g fill="#d8b56c" stroke="#d8b56c" opacity="0.9"><g stroke="none"><g transform="translate(12 12)"><circle cx="0" cy="0" r="1.32"/><ellipse rx="1.01" ry="2.68" transform="rotate(0) translate(0 -3.15)"/><ellipse rx="1.01" ry="2.68" transform="rotate(90) translate(0 -3.15)"/><ellipse rx="1.01" ry="2.68" transform="rotate(180) translate(0 -3.15)"/><ellipse rx="1.01" ry="2.68" transform="rotate(270) translate(0 -3.15)"/></g><g transform="translate(36 36)"><circle cx="0" cy="0" r="1.32"/><ellipse rx="1.01" ry="2.68" transform="rotate(0) translate(0 -3.15)"/><ellipse rx="1.01" ry="2.68" transform="rotate(90) translate(0 -3.15)"/><ellipse rx="1.01" ry="2.68" transform="rotate(180) translate(0 -3.15)"/><ellipse rx="1.01" ry="2.68" transform="rotate(270) translate(0 -3.15)"/></g></g></g></pattern><pattern id="border" width="28.8" height="48" patternUnits="userSpaceOnUse" patternTransform="rotate(90)"><g fill="#d8b56c" stroke="#d8b56c"><rect x="0" y="3.2" width="28.8" height="2" stroke="none"/><path d="M0 36.8 L14.4 12.8 L28.8 36.8 Z" stroke="none" opacity="0.9"/><rect x="0" y="41.6" width="28.8" height="2" stroke="none"/></g></pattern><pattern id="hem" width="32.4" height="54" patternUnits="userSpaceOnUse"><g fill="#d8b56c" stroke="#d8b56c"><rect x="0" y="3.6" width="32.4" height="2.25" stroke="none"/><path d="M0 41.4 L16.2 14.4 L32.4 41.4 Z" stroke="none" opacity="0.9"/><rect x="0" y="46.8" width="32.4" height="2.25" stroke="none"/></g></pattern><linearGradient id="folds" x1="0" y1="0" x2="1" y2="0"><stop offset="0" stop-color="#000" stop-opacity="0.34"/><stop offset="0.1" stop-color="#fff" stop-opacity="0.1"/><stop offset="0.22" stop-color="#000" stop-opacity="0.2"/><stop offset="0.36" stop-color="#fff" stop-opacity="0.16"/><stop offset="0.5" stop-color="#000" stop-opacity="0.1"/><stop offset="0.62" stop-color="#fff" stop-opacity="0.12"/><stop offset="0.76" stop-color="#000" stop-opacity="0.22"/><stop offset="0.88" stop-color="#fff" stop-opacity="0.07"/><stop offset="1" stop-color="#000" stop-opacity="0.32"/></linearGradient><linearGradient id="top" x1="0" y1="0" x2="0" y2="1"><stop offset="0" stop-color="#000" stop-opacity="0.32"/><stop offset="0.14" stop-color="#000" stop-opacity="0"/></linearGradient><clipPath id="drape"><path d="M235 160 L665 160 C690 430 735 760 765 1050 Q705 1082 645 1056 Q585 1090 522 1060 Q460 1094 398 1060 Q336 1090 276 1056 Q206 1082 138 1050 C168 760 212 430 235 160 Z"/></clipPath><filter id="blur" x="-20%" y="-200%" width="140%" height="500%"><feGaussianBlur stdDeviation="14"/></filter></defs><rect width="900" height="1200" fill="url(#bg)"/><rect width="900" height="1200" fill="url(#spot)"/><ellipse cx="452" cy="1098" rx="320" ry="22" fill="#000" opacity="0.5" filter="url(#blur)"/><g clip-path="url(#drape)"><rect x="100" y="150" width="720" height="960" fill="url(#body)"/><rect x="100" y="150" width="720" height="960" fill="url(#motif)"/><rect x="100" y="800" width="720" height="310" fill="#1a4d56"/><rect x="100" y="800" width="720" height="310" fill="url(#pallu)"/><rect x="100" y="800" width="720" height="44" fill="#7a1f4a"/><rect x="100" y="800" width="720" height="44" fill="url(#hem)"/><path d="M612 150 L710 150 C735 430 780 760 810 1110 L716 1110 C688 780 646 450 612 150 Z" fill="#7a1f4a"/><path d="M612 150 L710 150 C735 430 780 760 810 1110 L716 1110 C688 780 646 450 612 150 Z" fill="url(#border)"/><rect x="100" y="150" width="720" height="960" fill="url(#folds)"/><rect x="100" y="150" width="720" height="960" fill="url(#top)"/></g><path d="M235 160 L665 160 C690 430 735 760 765 1050 Q705 1082 645 1056 Q585 1090 522 1060 Q460 1094 398 1060 Q336 1090 276 1056 Q206 1082 138 1050 C168 760 212 430 235 160 Z" fill="none" stroke="#000" stroke-opacity="0.12" stroke-width="1.5"/><path d="M450 146 V112 C450 90 476 90 476 108" fill="none" stroke="#aeb6bb" stroke-width="4" stroke-linecap="round"/><rect x="196" y="144" width="508" height="12" rx="6" fill="#c9cfd3"/></svg>
